:SAMPLES-PER-SECOND 25
:FULLY-SPECIFIED
:DEGREES
291
root  16.1943 38.3473 -74.7806 175.685 2.71103 -176.957
RightUpLeg  12.517 -5.25683 2.32816
RightLeg  24.4551 6.72506 3.11758
RightFoot  -16.7636 0.0767965 4.01956
RightToes  2.84633e-005 7.89722e-005 -0.000426369
Spine  1.45562 4.04251 1.25757
Spine1  2.82416 7.67383 4.4608
HEad  34.4096 8.0988 -11.8296
LeftShoulder1  -3.88251e-019 0 -3.92111e-022
LeftArm  -45.0018 33.6873 -82.1708
LeftForeArm  21.7943 2.16972 3.39133
LeftHand  -0.47472 -2.74608 6.99887
RightShoulder  7.45443e-017 -2.42657e-020 1.96277e-018
RightArm  -14.9425 -14.9014 73.4105
RightForeArm  16.761 14.5369 9.06339
RightHand  -1.4537 11.0776 -10.6028
LeftUpLeg  -16.377 -0.937793 -1.53141
LeftLeg  2.30833 13.5 0.961887
LeftFoot  13.4473 -1.01272 4.23009
LeftToes  3.91355e-005 3.11907e-005 -4.10385e-006
292
root  15.9171 38.3506 -76.5193 174.327 3.73047 179.207
RightUpLeg  12.7398 -6.8126 -4.84819
RightLeg  31.4701 9.67338 6.11161
RightFoot  -11.7997 -0.0546693 7.6696
RightToes  2.84633e-005 7.89722e-005 -0.000426369
Spine  1.9352 4.06561 -0.386331
Spine1  3.62598 7.51606 1.69557
HEad  35.1563 9.58374 -10.6094
LeftShoulder1  -3.88251e-019 0 -3.92111e-022
LeftArm  -44.0965 31.6565 -81.038
LeftForeArm  20.265 2.19455 2.7692
LeftHand  -0.494612 -2.84779 7.19888
RightShoulder  7.45443e-017 -2.42657e-020 1.96277e-018
RightArm  -25.8287 -12.9655 74.8019
RightForeArm  28.1948 7.91932 9.03532
RightHand  -1.36727 10.6589 -10.242
LeftUpLeg  -14.1698 -2.90194 -5.60809
LeftLeg  6.22313 16.1685 1.28445
LeftFoot  11.4393 -2.30761 11.0422
LeftToes  3.91355e-005 3.11907e-005 -4.10385e-006
293
root  15.7079 38.3623 -78.0375 174.347 3.90163 175.201
RightUpLeg  8.01197 -6.44046 -10.6292
RightLeg  42.4288 9.32062 8.72618
RightFoot  -1.56492 -0.843901 9.75151
RightToes  2.84633e-005 7.89722e-005 -0.000426369
Spine  1.79431 3.95603 -2.37711
Spine1  3.17314 7.13553 -1.57088
HEad  37.2342 11.0814 -8.86706
LeftShoulder1  -3.88251e-019 0 -3.92111e-022
LeftArm  -42.4991 28.4547 -79.4706
LeftForeArm  19.0773 2.22684 2.19615
LeftHand  -0.529805 -3.27044 7.34989
RightShoulder  7.45443e-017 -2.42657e-020 1.96277e-018
RightArm  -28.136 -11.7859 77.2468
RightForeArm  32.0973 3.55594 5.99152
RightHand  -0.971535 9.05914 -8.12698
LeftUpLeg  -12.7259 -4.56945 -9.51164
LeftLeg  7.88969 18.4763 0.962801
LeftFoot  7.2894 -1.60236 9.3935
LeftToes  3.91355e-005 3.11907e-005 -4.10385e-006
294
root  15.5979 38.2208 -79.1858 175.238 3.5838 173.394
RightUpLeg  0.0206463 -4.24049 -12.0833
RightLeg  54.342 6.31234 8.9403
RightFoot  7.26615 -1.67083 10.4836
RightToes  2.84633e-005 7.89722e-005 -0.000426369
Spine  1.39122 3.7399 -3.43731
Spine1  2.30707 6.65734 -3.22192
HEad  38.7603 12.918 -8.16044
LeftShoulder1  -3.88251e-019 0 -3.92111e-022
LeftArm  -41.5205 25.0086 -78.7581
LeftForeArm  17.7963 2.30286 1.85641
LeftHand  -0.5802 -4.24005 7.27456
RightShoulder  7.45443e-017 -2.42657e-020 1.96277e-018
RightArm  -27.5579 -12.807 78.074
RightForeArm  34.0244 3.3045 5.58111
RightHand  -0.575446 7.43013 -5.56269
LeftUpLeg  -13.2272 -4.71675 -11.4173
LeftLeg  10.794 17.9307 1.06459
LeftFoot  3.82323 -0.968654 7.10214
LeftToes  3.91355e-005 3.11907e-005 -4.10385e-006
295
root  15.5426 38.173 -80.1677 175.1 1.87988 173.857
RightUpLeg  -6.27464 -3.00196 -10.8442
RightLeg  62.4427 3.30096 6.28539
RightFoot  9.38475 -1.74346 9.89323
RightToes  2.84633e-005 7.89722e-005 -0.000426369
Spine  1.64116 3.23092 -3.31594
Spine1  2.84754 5.60082 -2.64188
HEad  37.8459 14.8656 -9.26362
LeftShoulder1  -3.88251e-019 0 -3.92111e-022
LeftArm  -41.2309 21.1447 -79.4097
LeftForeArm  15.4401 1.67701 1.09829
LeftHand  -0.670795 -4.89458 7.86217
RightShoulder  7.45443e-017 -2.42657e-020 1.96277e-018
RightArm  -26.0685 -14.6464 76.4049
RightForeArm  34.4819 5.65349 7.94217
RightHand  -0.617295 7.95349 -5.75021
LeftUpLeg  -12.7696 -3.57693 -12.1552
LeftLeg  14.0442 15.0762 1.98739
LeftFoot  1.39761 -0.941858 8.36423
LeftToes  3.91355e-005 3.11907e-005 -4.10385e-006
296
root  15.608 38.3386 -81.135 174.656 -2.21436 174.965
RightUpLeg  -10.3617 -3.91431 -9.06511
RightLeg  64.9116 1.7069 3.38719
RightFoot  6.06308 -1.08123 7.32668
RightToes  2.84633e-005 7.89722e-005 -0.000426369
Spine  2.25211 2.43591 -2.89397
Spine1  4.13785 3.9816 -1.41869
HEad  35.8467 15.6915 -10.8633
LeftShoulder1  -3.88251e-019 0 -3.92111e-022
LeftArm  -40.0604 15.9325 -80.5304
LeftForeArm  15.0667 -0.920886 -0.0783831
LeftHand  -0.74008 -5.23496 8.38474
RightShoulder  7.45443e-017 -2.42657e-020 1.96277e-018
RightArm  -24.4931 -15.7586 74.2735
RightForeArm  32.3571 7.50242 9.49542
RightHand  -1.12032 10.1583 -8.73029
LeftUpLeg  -10.763 -3.22773 -12.1953
LeftLeg  15.1287 11.1092 1.87806
LeftFoot  -0.56629 -0.857362 9.10649
LeftToes  3.91355e-005 3.11907e-005 -4.10385e-006
297
root  15.8272 38.5033 -82.077 174.965 -7.86383 175.943
RightUpLeg  -13.8066 -5.30195 -7.54135
RightLeg  62.5267 1.07891 1.72749
RightFoot  0.825445 -0.466502 4.44785
RightToes  2.84633e-005 7.89722e-005 -0.000426369
Spine  2.48382 1.61641 -2.56784
Spine1  4.69744 2.46924 -0.650065
HEad  35.3966 15.2681 -11.4002
LeftShoulder1  -3.88251e-019 0 -3.92111e-022
LeftArm  -37.7754 9.79972 -81.3207
LeftForeArm  19.5166 -1.44065 -0.696214
LeftHand  -0.692827 -6.00079 7.38262
RightShoulder  7.45443e-017 -2.42657e-020 1.96277e-018
RightArm  -25.767 -16.502 73.2233
RightForeArm  31.0034 7.35929 9.07072
RightHand  -1.51624 11.1833 -10.985
LeftUpLeg  -9.32857 -2.44877 -11.6385
LeftLeg  15.7441 5.01475 0.419671
LeftFoot  -2.20732 -0.675297 8.61033
LeftToes  3.91355e-005 3.11907e-005 -4.10385e-006
298
root  16.0806 38.6946 -82.9718 175.217 -14.0316 177.081
RightUpLeg  -15.8674 -6.53398 -6.49121
RightLeg  55.3536 0.263882 0.061809
RightFoot  -2.36061 -0.239948 2.89374
RightToes  2.84633e-005 7.89722e-005 -0.000426369
Spine  2.43956 0.814034 -1.98556
Spine1  4.73091 1.10888 0.115143
HEad  36.5272 14.2814 -11.1236
LeftShoulder1  -3.88251e-019 0 -3.92111e-022
LeftArm  -35.9581 3.99634 -81.8203
LeftForeArm  25.6151 0.264931 -0.64028
LeftHand  -0.593602 -6.4874 6.13031
RightShoulder  7.45443e-017 -2.42657e-020 1.96277e-018
RightArm  -27.4136 -17.2385 72.7936
RightForeArm  30.1546 6.11977 7.65823
RightHand  -1.34012 10.205 -10.3091
LeftUpLeg  -7.91031 -1.73713 -10.6018
LeftLeg  16.0473 -1.5487 -1.28506
LeftFoot  -2.99956 -0.65086 9.15459
LeftToes  3.91355e-005 3.11907e-005 -4.10385e-006
299
root  16.3493 38.9362 -83.7776 175.167 -20.6515 178.203
RightUpLeg  -16.0231 -7.39503 -6.17582
RightLeg  44.0283 0.0381401 -0.220066
RightFoot  -2.67533 -0.239991 2.91328
RightToes  2.84633e-005 7.89722e-005 -0.000426369
Spine  2.49443 0.0430686 -1.07848
Spine1  4.94423 -0.188788 1.01061
HEad  37.2488 12.9974 -11.1363
LeftShoulder1  -3.88251e-019 0 -3.92111e-022
LeftArm  -35.0703 -0.976697 -82.5864
LeftForeArm  28.4611 2.02636 -0.446938
LeftHand  -0.605715 -6.05832 6.47097
RightShoulder  7.45443e-017 -2.42657e-020 1.96277e-018
RightArm  -27.9057 -17.8573 72.1499
RightForeArm  29.4212 4.8127 6.36355
RightHand  -1.01943 9.18174 -8.47584
LeftUpLeg  -6.26538 -1.88928 -9.41973
LeftLeg  15.694 -7.76133 -2.74993
LeftFoot  -3.29327 -0.669677 9.77635
LeftToes  3.91355e-005 3.11907e-005 -4.10385e-006
300
root  16.7164 39.0908 -84.5621 175.693 -27.765 178.744
RightUpLeg  -15.3546 -5.43156 -6.78836
RightLeg  31.6283 3.64483 2.16616
RightFoot  -3.72066 -0.288254 3.94037
RightToes  2.84633e-005 7.89722e-005 -0.000426369
Spine  2.54207 -0.570009 -0.236152
Spine1  5.09117 -1.23279 1.46791
HEad  36.846 12.0041 -11.5281
LeftShoulder1  -3.88251e-019 0 -3.92111e-022
LeftArm  -33.976 -4.94037 -83.8888
LeftForeArm  28.5638 2.22647 -0.221189
LeftHand  -0.727306 -5.47519 8.07822
RightShoulder  7.45443e-017 -2.42657e-020 1.96277e-018
RightArm  -28.4089 -18.5592 71.4415
RightForeArm  30.605 3.81288 5.60808
RightHand  -0.910243 8.99396 -7.70753
LeftUpLeg  -5.69706 -2.07181 -8.34913
LeftLeg  16.0227 -14.4903 -4.57336
LeftFoot  -3.59901 -0.619286 9.44863
LeftToes  3.91355e-005 3.11907e-005 -4.10385e-006
